<?xml version="1.0" encoding="UTF-8"?>
<svg width="400" height="300" viewBox="0 0 400 300" xmlns="http://www.w3.org/2000/svg">
  <!-- Road -->
  <rect x="50" y="220" width="300" height="20" fill="#aaaaaa" rx="2" />
  <rect x="50" y="230" width="300" height="10" fill="#888888" />
  
  <!-- Road markings -->
  <rect x="70" y="228" width="20" height="4" fill="white" />
  <rect x="120" y="228" width="20" height="4" fill="white" />
  <rect x="170" y="228" width="20" height="4" fill="white" />
  <rect x="220" y="228" width="20" height="4" fill="white" />
  <rect x="270" y="228" width="20" height="4" fill="white" />
  <rect x="320" y="228" width="20" height="4" fill="white" />
  
  <!-- Car body -->
  <g transform="translate(200, 200) rotate(15) scale(0.7)">
    <rect x="-80" y="-25" width="160" height="30" fill="#c70c3c" rx="8" />
    <rect x="-60" y="-45" width="120" height="25" fill="#c70c3c" rx="8" />
    
    <!-- Windows -->
    <rect x="-50" y="-42" width="40" height="18" fill="#cceeff" rx="4" />
    <rect x="10" y="-42" width="40" height="18" fill="#cceeff" rx="4" />
    
    <!-- Wheels -->
    <circle cx="-50" cy="5" r="15" fill="#333333" />
    <circle cx="-50" cy="5" r="7" fill="#666666" />
    
    <circle cx="50" cy="5" r="15" fill="#333333" />
    <circle cx="50" cy="5" r="7" fill="#666666" />
    
    <!-- Headlights -->
    <circle cx="-70" cy="-10" r="5" fill="#ffffcc" />
    <circle cx="70" cy="-10" r="5" fill="#ffffcc" />
    
    <!-- Question mark -->
    <g transform="translate(0, -70) scale(0.8)">
      <circle cx="0" cy="0" r="30" fill="#f5f5f5" stroke="#e0e0e0" stroke-width="2" />
      <path d="M-10,-5 C-10,-15 10,-15 10,-5 C10,5 0,5 0,10" stroke="#c70c3c" stroke-width="6" fill="none" stroke-linecap="round" />
      <circle cx="0" cy="20" r="3" fill="#c70c3c" />
    </g>
  </g>
  
  <!-- Map markers -->
  <g transform="translate(100, 150)">
    <path d="M0,-30 C-15,-30 -25,-15 -25,0 C-25,20 0,40 0,40 C0,40 25,20 25,0 C25,-15 15,-30 0,-30 Z" fill="#e0e0e0" stroke="#c0c0c0" />
    <circle cx="0" cy="0" r="8" fill="#c0c0c0" />
  </g>
  
  <g transform="translate(300, 100)">
    <path d="M0,-30 C-15,-30 -25,-15 -25,0 C-25,20 0,40 0,40 C0,40 25,20 25,0 C25,-15 15,-30 0,-30 Z" fill="#e0e0e0" stroke="#c0c0c0" />
    <circle cx="0" cy="0" r="8" fill="#c0c0c0" />
  </g>
  
  <!-- Dotted path line -->
  <path d="M120,135 C150,120 250,90 280,90" stroke="#c0c0c0" stroke-width="3" stroke-dasharray="5,5" fill="none" />
  
  <!-- Compass -->
  <g transform="translate(50, 50)">
    <circle cx="0" cy="0" r="20" fill="white" stroke="#e0e0e0" stroke-width="2" />
    <path d="M0,-15 L0,15 M-15,0 L15,0" stroke="#c0c0c0" stroke-width="2" />
    <path d="M0,0 L0,-12" stroke="#c70c3c" stroke-width="2" stroke-linecap="round" />
    <path d="M0,0 L8,8" stroke="#666666" stroke-width="2" stroke-linecap="round" />
    <circle cx="0" cy="0" r="3" fill="#666666" />
  </g>
</svg>