<svg width="64" height="65" viewBox="0 0 64 65" fill="none" xmlns="http://www.w3.org/2000/svg">
<g id="mdi--feedback 1">
<path id="Vector" d="M53.3333 6.30859H10.6666C7.73331 6.30859 5.33331 8.70859 5.33331 11.6419V43.6419C5.33331 46.5753 7.73331 48.9753 10.6666 48.9753H21.3333V56.9753C21.3333 58.5753 22.4 59.6419 24 59.6419H25.3333C25.8666 59.6419 26.6666 59.3753 27.2 58.8419L37.0666 48.9753H53.3333C56.2666 48.9753 58.6666 46.5753 58.6666 43.6419V11.6419C58.6666 8.70859 56.2666 6.30859 53.3333 6.30859ZM29.3333 35.6419H18.6666V24.4419L22.1333 16.9753H27.4666L23.7333 24.9753H29.3333V35.6419ZM45.3333 35.6419H34.6666V24.4419L38.1333 16.9753H43.4666L39.7333 24.9753H45.3333V35.6419Z" fill="#31598F"/>
</g>
</svg>
