<svg width="64" height="65" viewBox="0 0 64 65" fill="none" xmlns="http://www.w3.org/2000/svg">
<g id="mdi--file-exchange 1">
<path id="Vector" d="M50.668 35.6449C51.5746 35.6449 52.4546 35.7515 53.3346 35.8849V22.3115L37.3346 6.31152H16.0013C13.0413 6.31152 10.668 8.68486 10.668 11.6449V54.3115C10.668 57.2715 13.0413 59.6449 16.0013 59.6449H36.828C35.468 57.2982 34.668 54.5782 34.668 51.6449C34.668 42.8182 41.8413 35.6449 50.668 35.6449ZM34.668 10.3115L49.3346 24.9782H34.668V10.3115ZM53.3346 52.9782V48.9782H42.668V43.6449H53.3346V39.6449L61.3346 46.3115L53.3346 52.9782ZM48.0013 54.3115H58.668V59.6449H48.0013V63.6449L40.0013 56.9782L48.0013 50.3115V54.3115Z" fill="#31598F"/>
</g>
</svg>
