<svg width="24" height="24" viewBox="0 0 24 24" fill="none" xmlns="http://www.w3.org/2000/svg">
<g id="mdi--hand-heart 1">
<path id="Vector" d="M19.9999 16.9999C20.5732 16.9999 21.0566 17.1999 21.4499 17.5999C21.8432 17.9999 22.0366 18.4665 22.0299 18.9999L13.9999 21.9999L6.99989 19.9999V10.9999H8.94989L16.2199 13.6899C16.7399 13.8965 16.9999 14.2699 16.9999 14.8099C16.9999 15.1232 16.8866 15.3965 16.6599 15.6299C16.4332 15.8632 16.1466 15.9865 15.7999 15.9999H12.9999L11.2499 15.3299L10.9199 16.2699L12.9999 16.9999H19.9999ZM15.9999 3.22988C16.7066 2.40988 17.6066 1.99988 18.6999 1.99988C19.6066 1.99988 20.3732 2.33321 20.9999 2.99988C21.6266 3.66654 21.9599 4.43321 21.9999 5.29988C21.9999 5.98654 21.6666 6.80654 20.9999 7.75988C20.3332 8.71321 19.6766 9.50988 19.0299 10.1499C18.3832 10.7899 17.3732 11.7399 15.9999 12.9999C14.6132 11.7399 13.5932 10.7899 12.9399 10.1499C12.2866 9.50988 11.6299 8.71321 10.9699 7.75988C10.3099 6.80654 9.98655 5.98654 9.99989 5.29988C9.99989 4.39321 10.3232 3.62654 10.9699 2.99988C11.6166 2.37321 12.3966 2.03988 13.3099 1.99988C14.3766 1.99988 15.2732 2.40988 15.9999 3.22988ZM0.983887 10.9999H4.99989V21.9999H0.983887V10.9999Z" fill="#31598F"/>
</g>
</svg>
