<svg width="64" height="65" viewBox="0 0 64 65" fill="none" xmlns="http://www.w3.org/2000/svg">
<g id="mdi--user-heart">
<path id="Vector" d="M39.9994 38.3063C32.7994 38.3063 18.666 41.773 18.666 48.973V54.3063H61.3327V48.973C61.3327 41.773 47.1994 38.3063 39.9994 38.3063ZM39.9994 32.973C42.8283 32.973 45.5414 31.8492 47.5418 29.8488C49.5422 27.8484 50.666 25.1353 50.666 22.3063C50.666 19.4773 49.5422 16.7642 47.5418 14.7638C45.5414 12.7635 42.8283 11.6396 39.9994 11.6396C37.1704 11.6396 34.4573 12.7635 32.4569 14.7638C30.4565 16.7642 29.3327 19.4773 29.3327 22.3063C29.3327 25.1353 30.4565 27.8484 32.4569 29.8488C34.4573 31.8492 37.1704 32.973 39.9994 32.973ZM13.3327 40.973L11.7327 39.6396C6.39935 34.573 2.66602 31.373 2.66602 27.373C2.66602 24.173 5.33268 21.5063 8.53268 21.5063C10.3993 21.5063 12.266 22.3063 13.3327 23.6396C14.3993 22.3063 16.266 21.5063 18.1327 21.5063C21.3327 21.5063 23.9993 23.9063 23.9993 27.373C23.9993 31.373 20.266 34.573 14.9327 39.6396L13.3327 40.973Z" fill="#31598F"/>
</g>
</svg>
