<svg width="20" height="20" viewBox="0 0 20 20" fill="none" xmlns="http://www.w3.org/2000/svg">
<g id="Optima Rent Icon/Manual">
<path id="Vector" d="M3.33334 17.5C2.6389 17.5 2.04862 17.2569 1.56251 16.7708C1.0764 16.2847 0.833344 15.6944 0.833344 15C0.833344 14.4583 0.989594 13.9722 1.30209 13.5417C1.61459 13.1111 2.0139 12.8125 2.50001 12.6458V7.35417C2.0139 7.1875 1.61459 6.88889 1.30209 6.45833C0.989594 6.02778 0.833344 5.54167 0.833344 5C0.833344 4.30556 1.0764 3.71528 1.56251 3.22917C2.04862 2.74306 2.6389 2.5 3.33334 2.5C4.02779 2.5 4.61807 2.74306 5.10418 3.22917C5.59029 3.71528 5.83334 4.30556 5.83334 5C5.83334 5.54167 5.67709 6.02778 5.36459 6.45833C5.05209 6.88889 4.65279 7.1875 4.16668 7.35417V9.16667H9.16668V7.35417C8.68057 7.1875 8.28126 6.88889 7.96876 6.45833C7.65626 6.02778 7.50001 5.54167 7.50001 5C7.50001 4.30556 7.74307 3.71528 8.22918 3.22917C8.71529 2.74306 9.30557 2.5 10 2.5C10.6945 2.5 11.2847 2.74306 11.7708 3.22917C12.257 3.71528 12.5 4.30556 12.5 5C12.5 5.54167 12.3438 6.02778 12.0313 6.45833C11.7188 6.88889 11.3195 7.1875 10.8333 7.35417V9.16667H15C15.2361 9.16667 15.434 9.08681 15.5938 8.92708C15.7535 8.76736 15.8333 8.56944 15.8333 8.33333V7.35417C15.3472 7.1875 14.9479 6.88889 14.6354 6.45833C14.3229 6.02778 14.1667 5.54167 14.1667 5C14.1667 4.30556 14.4097 3.71528 14.8958 3.22917C15.382 2.74306 15.9722 2.5 16.6667 2.5C17.3611 2.5 17.9514 2.74306 18.4375 3.22917C18.9236 3.71528 19.1667 4.30556 19.1667 5C19.1667 5.54167 19.0104 6.02778 18.6979 6.45833C18.3854 6.88889 17.9861 7.1875 17.5 7.35417V8.33333C17.5 9.02778 17.257 9.61806 16.7708 10.1042C16.2847 10.5903 15.6945 10.8333 15 10.8333H10.8333V12.6458C11.3195 12.8125 11.7188 13.1111 12.0313 13.5417C12.3438 13.9722 12.5 14.4583 12.5 15C12.5 15.6944 12.257 16.2847 11.7708 16.7708C11.2847 17.2569 10.6945 17.5 10 17.5C9.30557 17.5 8.71529 17.2569 8.22918 16.7708C7.74307 16.2847 7.50001 15.6944 7.50001 15C7.50001 14.4583 7.65626 13.9722 7.96876 13.5417C8.28126 13.1111 8.68057 12.8125 9.16668 12.6458V10.8333H4.16668V12.6458C4.65279 12.8125 5.05209 13.1111 5.36459 13.5417C5.67709 13.9722 5.83334 14.4583 5.83334 15C5.83334 15.6944 5.59029 16.2847 5.10418 16.7708C4.61807 17.2569 4.02779 17.5 3.33334 17.5ZM3.33334 15.8333C3.56945 15.8333 3.76737 15.7535 3.92709 15.5938C4.08682 15.434 4.16668 15.2361 4.16668 15C4.16668 14.7639 4.08682 14.566 3.92709 14.4063C3.76737 14.2465 3.56945 14.1667 3.33334 14.1667C3.09723 14.1667 2.89932 14.2465 2.73959 14.4063C2.57987 14.566 2.50001 14.7639 2.50001 15C2.50001 15.2361 2.57987 15.434 2.73959 15.5938C2.89932 15.7535 3.09723 15.8333 3.33334 15.8333ZM3.33334 5.83333C3.56945 5.83333 3.76737 5.75347 3.92709 5.59375C4.08682 5.43403 4.16668 5.23611 4.16668 5C4.16668 4.76389 4.08682 4.56597 3.92709 4.40625C3.76737 4.24653 3.56945 4.16667 3.33334 4.16667C3.09723 4.16667 2.89932 4.24653 2.73959 4.40625C2.57987 4.56597 2.50001 4.76389 2.50001 5C2.50001 5.23611 2.57987 5.43403 2.73959 5.59375C2.89932 5.75347 3.09723 5.83333 3.33334 5.83333ZM10 15.8333C10.2361 15.8333 10.434 15.7535 10.5938 15.5938C10.7535 15.434 10.8333 15.2361 10.8333 15C10.8333 14.7639 10.7535 14.566 10.5938 14.4063C10.434 14.2465 10.2361 14.1667 10 14.1667C9.7639 14.1667 9.56598 14.2465 9.40626 14.4063C9.24654 14.566 9.16668 14.7639 9.16668 15C9.16668 15.2361 9.24654 15.434 9.40626 15.5938C9.56598 15.7535 9.7639 15.8333 10 15.8333ZM10 5.83333C10.2361 5.83333 10.434 5.75347 10.5938 5.59375C10.7535 5.43403 10.8333 5.23611 10.8333 5C10.8333 4.76389 10.7535 4.56597 10.5938 4.40625C10.434 4.24653 10.2361 4.16667 10 4.16667C9.7639 4.16667 9.56598 4.24653 9.40626 4.40625C9.24654 4.56597 9.16668 4.76389 9.16668 5C9.16668 5.23611 9.24654 5.43403 9.40626 5.59375C9.56598 5.75347 9.7639 5.83333 10 5.83333ZM16.6667 5.83333C16.9028 5.83333 17.1007 5.75347 17.2604 5.59375C17.4201 5.43403 17.5 5.23611 17.5 5C17.5 4.76389 17.4201 4.56597 17.2604 4.40625C17.1007 4.24653 16.9028 4.16667 16.6667 4.16667C16.4306 4.16667 16.2326 4.24653 16.0729 4.40625C15.9132 4.56597 15.8333 4.76389 15.8333 5C15.8333 5.23611 15.9132 5.43403 16.0729 5.59375C16.2326 5.75347 16.4306 5.83333 16.6667 5.83333Z" fill="#1E3555"/>
</g>
</svg>
