<svg width="200" height="49" viewBox="0 0 200 49" fill="none" xmlns="http://www.w3.org/2000/svg">
<g id="logo-red.svg" clip-path="url(#clip0_4436_113)">
<g id="Group">
<g id="Group_2">
<path id="Vector" d="M60.4673 48.0001V39.0401H64.3201C65.4209 39.0401 66.3041 39.3729 66.8673 39.9361C67.3025 40.3713 67.5585 40.9985 67.5585 41.7025V41.7281C67.5585 43.2129 66.5345 44.0833 65.1265 44.3393L67.8785 48.0001H66.6369L64.0385 44.5185H61.4785V48.0001H60.4673ZM61.4785 43.6097H64.2305C65.5745 43.6097 66.5345 42.9185 66.5345 41.7665V41.7409C66.5345 40.6401 65.6897 39.9745 64.2433 39.9745H61.4785V43.6097ZM69.7217 48.0001V39.0401H76.1985V39.9617H70.7329V43.0209H75.6225V43.9425H70.7329V47.0785H76.2625V48.0001H69.7217ZM78.2977 48.0001V39.0401H79.2449L84.8897 46.2209V39.0401H85.8753V48.0001H85.0689L79.2833 40.6529V48.0001H78.2977ZM90.7777 48.0001V39.9745H87.7697V39.0401H94.8097V39.9745H91.8017V48.0001H90.7777ZM99.7761 48.0001L103.859 38.9761H104.806L108.89 48.0001H107.802L106.752 45.6321H101.875L100.813 48.0001H99.7761ZM102.272 44.7105H106.355L104.32 40.1537L102.272 44.7105ZM118.592 48.1537C116.006 48.1537 114.099 46.1185 114.099 43.5457V43.5201C114.099 40.9857 115.994 38.8865 118.63 38.8865C120.256 38.8865 121.229 39.4625 122.125 40.3073L121.434 41.0497C120.678 40.3329 119.834 39.8209 118.618 39.8209C116.634 39.8209 115.149 41.4337 115.149 43.4945V43.5201C115.149 45.5937 116.646 47.2193 118.618 47.2193C119.846 47.2193 120.653 46.7457 121.51 45.9265L122.176 46.5793C121.242 47.5265 120.218 48.1537 118.592 48.1537ZM123.174 48.0001L127.258 38.9761H128.205L132.288 48.0001H131.2L130.15 45.6321H125.274L124.211 48.0001H123.174ZM125.67 44.7105H129.754L127.718 40.1537L125.67 44.7105ZM134.054 48.0001V39.0401H137.907C139.008 39.0401 139.891 39.3729 140.454 39.9361C140.89 40.3713 141.146 40.9985 141.146 41.7025V41.7281C141.146 43.2129 140.122 44.0833 138.714 44.3393L141.466 48.0001H140.224L137.626 44.5185H135.066V48.0001H134.054ZM135.066 43.6097H137.818C139.162 43.6097 140.122 42.9185 140.122 41.7665V41.7409C140.122 40.6401 139.277 39.9745 137.83 39.9745H135.066V43.6097Z" fill="#C70C3C"/>
<path id="Vector_2" d="M12.448 24.9945C5.53602 24.9945 0.416016 19.8425 0.416016 13.4105V13.3465C0.416016 6.91452 5.60002 1.69852 12.512 1.69852C19.424 1.69852 24.544 6.85052 24.544 13.2825V13.3465C24.544 19.7785 19.36 24.9945 12.448 24.9945ZM12.512 19.3945C15.936 19.3945 18.208 16.6425 18.208 13.4105V13.3465C18.208 10.1145 15.872 7.29852 12.448 7.29852C9.05602 7.29852 6.78402 10.0505 6.78402 13.2825V13.3465C6.78402 16.5785 9.12002 19.3945 12.512 19.3945ZM26.8836 29.6665V7.23452H32.9636V9.53852C34.1475 8.09852 35.6196 6.85052 38.2116 6.85052C42.3396 6.85052 45.8916 10.2745 45.8916 15.8105V15.8745C45.8916 21.5065 42.3396 24.9305 38.2436 24.9305C35.6196 24.9305 34.0835 23.7465 32.9636 22.4345V29.6665H26.8836ZM36.3556 19.8425C38.3396 19.8425 39.9076 18.2425 39.9076 15.9065V15.8425C39.9076 13.5705 38.3396 11.9385 36.3556 11.9385C34.4036 11.9385 32.8356 13.5705 32.8356 15.8425V15.9065C32.8356 18.2105 34.4036 19.8425 36.3556 19.8425ZM54.6951 24.8985C51.0471 24.8985 48.8711 23.2985 48.8711 19.1705V12.1305H46.8231V7.23452H48.8711V2.85052H54.9511V7.23452H58.9831V12.1305H54.9511V17.9865C54.9511 19.2025 55.4951 19.7145 56.6151 19.7145C57.4151 19.7145 58.1831 19.4905 58.9191 19.1385V23.9065C57.8311 24.5145 56.3911 24.8985 54.6951 24.8985ZM61.0666 5.66652V1.18652H67.4026V5.66652H61.0666ZM61.1946 24.5465V7.23452H67.2746V24.5465H61.1946ZM70.1262 24.5465V7.23452H76.2062V9.60252C77.3262 8.16252 78.9262 6.85052 81.3582 6.85052C83.6622 6.85052 85.4222 7.87452 86.3502 9.66652C87.8542 7.93852 89.6142 6.85052 92.1422 6.85052C95.8222 6.85052 98.0622 9.15452 98.0622 13.1865V24.5465H91.9822V15.1385C91.9822 13.2505 91.0542 12.2585 89.6142 12.2585C88.1742 12.2585 87.1182 13.2505 87.1182 15.1385V24.5465H81.0382V15.1385C81.0382 13.2505 80.1102 12.2585 78.6702 12.2585C77.2302 12.2585 76.2062 13.2505 76.2062 15.1385V24.5465H70.1262ZM105.618 24.9305C102.322 24.9305 99.7937 23.0425 99.7937 19.5865V19.5225C99.7937 15.9385 102.514 14.0825 106.578 14.0825C108.178 14.0825 109.746 14.4025 110.738 14.7545V14.4665C110.738 12.6745 109.618 11.6505 107.282 11.6505C105.458 11.6505 104.05 12.0025 102.514 12.6105L101.266 8.32252C103.218 7.52252 105.298 6.97852 108.274 6.97852C111.378 6.97852 113.49 7.71452 114.866 9.09052C116.178 10.3705 116.722 12.1625 116.722 14.5945V24.5465H110.706V22.7545C109.522 24.0665 107.89 24.9305 105.618 24.9305ZM107.794 21.1225C109.554 21.1225 110.802 20.0025 110.802 18.2745V17.4745C110.194 17.2185 109.33 17.0265 108.434 17.0265C106.674 17.0265 105.65 17.8905 105.65 19.1705V19.2345C105.65 20.4185 106.546 21.1225 107.794 21.1225ZM127.961 24.5465V2.14652H138.553C141.977 2.14652 144.345 3.04252 145.849 4.57852C147.161 5.85852 147.833 7.58652 147.833 9.79452V9.85852C147.833 13.2825 146.009 15.5545 143.225 16.7385L148.569 24.5465H141.401L136.889 17.7625H134.169V24.5465H127.961ZM134.169 12.8985H138.265C140.377 12.8985 141.593 11.8745 141.593 10.2425V10.1785C141.593 8.41852 140.313 7.52252 138.233 7.52252H134.169V12.8985ZM158.332 24.9625C152.892 24.9625 149.052 21.3465 149.052 15.9705V15.9065C149.052 10.8505 152.668 6.85052 157.788 6.85052C163.772 6.85052 166.524 11.2345 166.524 16.3225C166.524 16.7065 166.524 17.1545 166.492 17.5705H154.908C155.388 19.4585 156.764 20.4185 158.652 20.4185C160.092 20.4185 161.244 19.8745 162.492 18.6585L165.852 21.4425C164.188 23.5545 161.788 24.9625 158.332 24.9625ZM154.812 14.4665H160.828C160.604 12.5465 159.484 11.3305 157.82 11.3305C156.22 11.3305 155.132 12.5785 154.812 14.4665ZM168.576 24.5465V7.23452H174.656V9.66652C175.776 8.22652 177.376 6.85052 179.84 6.85052C183.52 6.85052 185.728 9.28252 185.728 13.2185V24.5465H179.648V15.1705C179.648 13.2825 178.656 12.2585 177.216 12.2585C175.744 12.2585 174.656 13.2825 174.656 15.1705V24.5465H168.576ZM195.203 24.8985C191.555 24.8985 189.379 23.2985 189.379 19.1705V12.1305H187.331V7.23452H189.379V2.85052H195.459V7.23452H199.491V12.1305H195.459V17.9865C195.459 19.2025 196.003 19.7145 197.123 19.7145C197.923 19.7145 198.691 19.4905 199.427 19.1385V23.9065C198.339 24.5145 196.899 24.8985 195.203 24.8985Z" fill="#C70C3C"/>
</g>
</g>
</g>
<defs>
<clipPath id="clip0_4436_113">
<rect width="200" height="48" fill="white" transform="translate(0 0.800232)"/>
</clipPath>
</defs>
</svg>
