<svg width="20" height="21" viewBox="0 0 20 21" fill="none" xmlns="http://www.w3.org/2000/svg">
<g id="PaperPlaneTilt">
<path id="Vector" d="M8.4375 12.5381L12.5 8.47559" stroke="#FAFAFA" stroke-width="1.5" stroke-linecap="round" stroke-linejoin="round"/>
<path id="Vector_2" d="M17.4758 4.27109C17.506 4.16417 17.5071 4.05116 17.479 3.94369C17.451 3.83622 17.3948 3.73816 17.3162 3.65962C17.2377 3.58108 17.1396 3.52489 17.0321 3.49683C16.9247 3.46877 16.8117 3.46986 16.7048 3.49999L1.70475 8.04843C1.58229 8.08299 1.4733 8.15411 1.39234 8.25228C1.31138 8.35044 1.26231 8.47099 1.25169 8.59779C1.24107 8.72459 1.26942 8.85161 1.33293 8.96188C1.39643 9.07214 1.49209 9.16039 1.6071 9.21484L8.43757 12.5383L11.761 19.368C11.8154 19.483 11.9037 19.5786 12.014 19.6421C12.1242 19.7056 12.2512 19.734 12.3781 19.7234C12.5049 19.7127 12.6254 19.6637 12.7236 19.5827C12.8217 19.5018 12.8928 19.3928 12.9274 19.2703L17.4758 4.27109Z" stroke="#FAFAFA" stroke-width="1.5" stroke-linecap="round" stroke-linejoin="round"/>
</g>
</svg>
