<svg width="64" height="65" viewBox="0 0 64 65" fill="none" xmlns="http://www.w3.org/2000/svg">
<g id="mdi--file-document-edit 1">
<path id="Vector" d="M16.0001 6.30957C13.0401 6.30957 10.6667 8.6829 10.6667 11.6429V54.3096C10.6667 55.7241 11.2287 57.0806 12.2288 58.0808C13.229 59.081 14.5856 59.6429 16.0001 59.6429H26.6667V54.5496L32.2401 48.9762H16.0001V43.6429H37.5734L42.9067 38.3096H16.0001V32.9762H48.2401L53.3334 27.8829V22.3096L37.3334 6.30957H16.0001ZM34.6667 10.3096L49.3334 24.9762H34.6667V10.3096ZM53.7334 35.6429C53.5361 35.6386 53.3399 35.6741 53.1566 35.7475C52.9733 35.8208 52.8067 35.9303 52.6667 36.0696L49.9467 38.7896L55.5201 44.3362L58.2401 41.6429C58.8001 41.0562 58.8001 40.0962 58.2401 39.5362L54.7734 36.0696C54.6375 35.9324 54.4754 35.8239 54.2968 35.7506C54.1181 35.6773 53.9265 35.6407 53.7334 35.6429ZM48.3734 40.3629L32.0001 56.7629V62.3096H37.5467L53.9467 45.9096L48.3734 40.3629Z" fill="black"/>
</g>
</svg>
