<svg width="64" height="65" viewBox="0 0 64 65" fill="none" xmlns="http://www.w3.org/2000/svg">
<g id="mdi--add-call 1">
<path id="Vector" d="M10.6667 8.97559C9.95942 8.97559 9.28115 9.25654 8.78105 9.75663C8.28095 10.2567 8 10.935 8 11.6423C8 23.6654 12.7762 35.1961 21.2778 43.6978C29.7795 52.1994 41.3102 56.9756 53.3333 56.9756C54.0406 56.9756 54.7189 56.6946 55.219 56.1945C55.7191 55.6944 56 55.0162 56 54.3089V44.9756C56 44.2683 55.7191 43.5901 55.219 43.09C54.7189 42.5899 54.0406 42.3089 53.3333 42.3089C50.0267 42.3089 46.8 41.7756 43.8133 40.7889C42.88 40.4956 41.84 40.7089 41.0933 41.4556L35.2267 47.3223C27.6679 43.4565 21.5191 37.3077 17.6533 29.7489L23.52 23.8556C24.2667 23.1356 24.48 22.0956 24.1867 21.1623C23.2 18.1756 22.6667 14.9489 22.6667 11.6423C22.6667 10.935 22.3857 10.2567 21.8856 9.75663C21.3855 9.25654 20.7072 8.97559 20 8.97559M42.6667 8.97559V16.9756H34.6667V22.3089H42.6667V30.3089H48V22.3089H56V16.9756H48V8.97559" fill="black"/>
</g>
</svg>
