<svg width="22" height="22" viewBox="0 0 22 22" fill="none" xmlns="http://www.w3.org/2000/svg">
<g id="Frame">
<path id="Vector" d="M21.0833 11L18.8833 8.43333L19.1583 5.04167L15.8583 4.30833L14.1167 1.375L11 2.75L7.88332 1.375L6.14166 4.30833L2.84166 5.04167L3.11666 8.43333L0.916656 11L3.11666 13.5667L2.84166 16.9583L6.14166 17.6917L7.88332 20.625L11 19.25L14.1167 20.625L15.8583 17.6917L19.1583 16.9583L18.8833 13.5667L21.0833 11ZM17.1417 15.4917L14.6667 16.0417L13.3833 18.2417L11 17.2333L8.61666 18.2417L7.33332 16.0417L4.85832 15.4917L5.04166 12.925L3.39166 11L5.04166 9.075L4.85832 6.50833L7.33332 5.95833L8.61666 3.75833L11 4.76667L13.3833 3.75833L14.6667 5.95833L17.1417 6.50833L16.9583 9.075L18.6083 11L16.9583 12.925L17.1417 15.4917ZM15.2167 6.96667L16.5 8.25L9.16666 15.5833L5.49999 11.9167L6.78332 10.6333L9.16666 13.0167L15.2167 6.96667Z" fill="#14253D"/>
</g>
</svg>
