<svg width="64" height="65" viewBox="0 0 64 65" fill="none" xmlns="http://www.w3.org/2000/svg">
<g id="mdi--car-search 1">
<path id="Vector" d="M25.6267 43.9362C25.6267 38.3896 28.24 33.4829 32.2667 30.3096H13.3333L17.3333 18.3096H46.6667L49.92 28.0696C52.16 29.0562 54.1333 30.4962 55.76 32.2829L50.4533 16.9762C49.92 15.4296 48.4267 14.3096 46.6667 14.3096H17.3333C15.5733 14.3096 14.08 15.4296 13.5467 16.9762L8 32.9762V54.3096C8 55.7762 9.2 56.9762 10.6667 56.9762H13.3333C14.8 56.9762 16 55.7762 16 54.3096V51.6429H27.44C26.2933 49.3229 25.6267 46.7096 25.6267 43.9362ZM17.3333 43.6429C15.12 43.6429 13.3333 41.8562 13.3333 39.6429C13.3333 37.4296 15.12 35.6429 17.3333 35.6429C19.5467 35.6429 21.3333 37.4296 21.3333 39.6429C21.3333 41.8562 19.5467 43.6429 17.3333 43.6429ZM42.96 31.9362C49.6267 31.9362 54.96 37.2696 54.96 43.9362C54.96 46.3096 54.2933 48.4962 53.12 50.3096L61.3333 58.6029L57.6267 62.3096L49.3333 54.1229C47.4667 55.2696 45.3333 55.9362 42.96 55.9362C36.2933 55.9362 30.96 50.6029 30.96 43.9362C30.96 37.2696 36.2933 31.9362 42.96 31.9362ZM42.96 37.2696C41.6415 37.2696 40.3525 37.6606 39.2562 38.3931C38.1599 39.1257 37.3054 40.1668 36.8008 41.385C36.2962 42.6032 36.1642 43.9436 36.4214 45.2368C36.6787 46.53 37.3136 47.7179 38.246 48.6503C39.1783 49.5826 40.3662 50.2176 41.6594 50.4748C42.9526 50.732 44.2931 50.6 45.5112 50.0954C46.7294 49.5909 47.7706 48.7364 48.5031 47.64C49.2357 46.5437 49.6267 45.2548 49.6267 43.9362C49.6267 40.2296 46.6667 37.2696 42.96 37.2696Z" fill="black"/>
</g>
</svg>
