<svg width="20" height="20" viewBox="0 0 20 20" fill="none" xmlns="http://www.w3.org/2000/svg">
<g id="mdi--hand-coin 1">
<path id="Vector" d="M13.3334 10.0003C15.6334 10.0003 17.5 8.13366 17.5 5.83366C17.5 3.53366 15.6334 1.66699 13.3334 1.66699C11.0334 1.66699 9.16669 3.53366 9.16669 5.83366C9.16669 8.13366 11.0334 10.0003 13.3334 10.0003ZM17.875 14.667C17.55 14.3337 17.1417 14.167 16.6667 14.167H10.8334L9.10002 13.5587L9.37502 12.7753L10.8334 13.3337H13.1667C13.4584 13.3337 13.6917 13.217 13.8834 13.0253C14.075 12.8337 14.1667 12.6003 14.1667 12.342C14.1667 11.892 13.95 11.5837 13.5167 11.4087L7.45835 9.16699H5.83336V16.667L11.6667 18.3337L18.3584 15.8337C18.3667 15.392 18.2 15.0003 17.875 14.667ZM4.16669 9.16699H0.820023V18.3337H4.16669V9.16699Z" fill="#FAFAFA"/>
</g>
</svg>
