<svg width="174" height="43" viewBox="0 0 174 43" fill="none" xmlns="http://www.w3.org/2000/svg">
<g id="logo-red.svg" clip-path="url(#clip0_4436_599)">
<g id="Group">
<g id="Group_2">
<path id="Vector" d="M52.6064 41.4728V33.6776H55.9584C56.9161 33.6776 57.6845 33.9671 58.1744 34.4571C58.5531 34.8357 58.7758 35.3814 58.7758 35.9939V36.0161C58.7758 37.3079 57.8849 38.0652 56.6599 38.2879L59.0542 41.4728H57.974L55.7134 38.4438H53.4862V41.4728H52.6064ZM53.4862 37.6531H55.8804C57.0497 37.6531 57.8849 37.0518 57.8849 36.0495V36.0273C57.8849 35.0696 57.1499 34.4905 55.8916 34.4905H53.4862V37.6531ZM60.6578 41.4728V33.6776H66.2926V34.4794H61.5375V37.1409H65.7915V37.9427H61.5375V40.671H66.3483V41.4728H60.6578ZM68.1189 41.4728V33.6776H68.943L73.8539 39.9249V33.6776H74.7114V41.4728H74.0098L68.9764 35.0807V41.4728H68.1189ZM78.9765 41.4728V34.4905H76.3595V33.6776H82.4843V34.4905H79.8674V41.4728H78.9765ZM86.8051 41.4728L90.3575 33.6219H91.1815L94.7339 41.4728H93.7874L92.8742 39.4126H88.6314L87.7071 41.4728H86.8051ZM88.9766 38.6108H92.529L90.7584 34.6464L88.9766 38.6108ZM103.175 41.6064C100.926 41.6064 99.2663 39.8358 99.2663 37.5974V37.5752C99.2663 35.3702 100.914 33.5439 103.208 33.5439C104.623 33.5439 105.469 34.0451 106.249 34.78L105.647 35.4259C104.99 34.8023 104.255 34.3569 103.197 34.3569C101.471 34.3569 100.179 35.76 100.179 37.5529V37.5752C100.179 39.3792 101.482 40.7935 103.197 40.7935C104.266 40.7935 104.968 40.3814 105.714 39.6687L106.293 40.2367C105.48 41.0607 104.589 41.6064 103.175 41.6064ZM107.162 41.4728L110.714 33.6219H111.538L115.091 41.4728H114.144L113.231 39.4126H108.988L108.064 41.4728H107.162ZM109.333 38.6108H112.886L111.115 34.6464L109.333 38.6108ZM116.627 41.4728V33.6776H119.979C120.937 33.6776 121.705 33.9671 122.195 34.4571C122.574 34.8357 122.797 35.3814 122.797 35.9939V36.0161C122.797 37.3079 121.906 38.0652 120.681 38.2879L123.075 41.4728H121.995L119.734 38.4438H117.507V41.4728H116.627ZM117.507 37.6531H119.901C121.071 37.6531 121.906 37.0518 121.906 36.0495V36.0273C121.906 35.0696 121.171 34.4905 119.912 34.4905H117.507V37.6531Z" fill="#FAFAFA"/>
<path id="Vector_2" d="M10.8297 21.4571C4.81622 21.4571 0.361816 16.9749 0.361816 11.379V11.3233C0.361816 5.7275 4.8719 1.18958 10.8853 1.18958C16.8988 1.18958 21.3532 5.67182 21.3532 11.2677V11.3233C21.3532 16.9192 16.8431 21.4571 10.8297 21.4571ZM10.8853 16.5851C13.8642 16.5851 15.8409 14.1909 15.8409 11.379V11.3233C15.8409 8.5115 13.8085 6.06158 10.8297 6.06158C7.87862 6.06158 5.90198 8.45582 5.90198 11.2677V11.3233C5.90198 14.1352 7.9343 16.5851 10.8853 16.5851ZM23.3886 25.5217V6.0059H28.6782V8.01038C29.7083 6.75758 30.9889 5.67182 33.2439 5.67182C36.8353 5.67182 39.9255 8.6507 39.9255 13.467V13.5227C39.9255 18.4225 36.8353 21.4014 33.2718 21.4014C30.9889 21.4014 29.6526 20.3713 28.6782 19.2299V25.5217H23.3886ZM31.6292 16.9749C33.3553 16.9749 34.7195 15.5829 34.7195 13.5505V13.4949C34.7195 11.5182 33.3553 10.0984 31.6292 10.0984C29.931 10.0984 28.5668 11.5182 28.5668 13.4949V13.5505C28.5668 15.555 29.931 16.9749 31.6292 16.9749ZM47.5846 21.3736C44.4109 21.3736 42.5177 19.9816 42.5177 16.3902V10.2654H40.736V6.0059H42.5177V2.19182H47.8073V6.0059H51.3152V10.2654H47.8073V15.3601C47.8073 16.4181 48.2806 16.8635 49.255 16.8635C49.951 16.8635 50.6192 16.6686 51.2595 16.3624V20.5105C50.3129 21.0395 49.0601 21.3736 47.5846 21.3736ZM53.1278 4.64174V0.744141H58.6402V4.64174H53.1278ZM53.2392 21.0673V6.0059H58.5288V21.0673H53.2392ZM61.0096 21.0673V6.0059H66.2992V8.06606C67.2736 6.81326 68.6656 5.67182 70.7815 5.67182C72.786 5.67182 74.3172 6.5627 75.1245 8.12174C76.433 6.61838 77.9642 5.67182 80.1636 5.67182C83.3652 5.67182 85.314 7.6763 85.314 11.1841V21.0673H80.0244V12.8824C80.0244 11.2398 79.217 10.3768 77.9642 10.3768C76.7114 10.3768 75.7927 11.2398 75.7927 12.8824V21.0673H70.5031V12.8824C70.5031 11.2398 69.6957 10.3768 68.4429 10.3768C67.1901 10.3768 66.2992 11.2398 66.2992 12.8824V21.0673H61.0096ZM91.8873 21.4014C89.0198 21.4014 86.8204 19.7589 86.8204 16.7521V16.6965C86.8204 13.5784 89.1868 11.9637 92.7225 11.9637C94.1145 11.9637 95.4786 12.2421 96.3417 12.5483V12.2977C96.3417 10.7387 95.3673 9.84782 93.335 9.84782C91.7481 9.84782 90.5231 10.1541 89.1868 10.683L88.101 6.95246C89.7993 6.25646 91.6089 5.78318 94.198 5.78318C96.8985 5.78318 98.7359 6.4235 99.933 7.62062C101.074 8.73422 101.548 10.2933 101.548 12.4091V21.0673H96.3138V19.5083C95.2838 20.6497 93.8639 21.4014 91.8873 21.4014ZM93.7804 18.0885C95.3116 18.0885 96.3974 17.1141 96.3974 15.6107V14.9147C95.8684 14.692 95.1167 14.5249 94.3372 14.5249C92.806 14.5249 91.9151 15.2766 91.9151 16.3902V16.4459C91.9151 17.476 92.6946 18.0885 93.7804 18.0885ZM111.326 21.0673V1.57934H120.541C123.52 1.57934 125.58 2.35886 126.888 3.69518C128.03 4.80878 128.614 6.31214 128.614 8.2331V8.28878C128.614 11.2677 127.028 13.2443 124.605 14.2744L129.255 21.0673H123.019L119.093 15.1653H116.727V21.0673H111.326ZM116.727 10.9336H120.29C122.128 10.9336 123.186 10.0427 123.186 8.62286V8.56718C123.186 7.03598 122.072 6.25646 120.262 6.25646H116.727V10.9336ZM137.749 21.4293C133.016 21.4293 129.675 18.2833 129.675 13.6062V13.5505C129.675 9.15182 132.821 5.67182 137.276 5.67182C142.482 5.67182 144.876 9.4859 144.876 13.9125C144.876 14.2465 144.876 14.6363 144.848 14.9982H134.77C135.188 16.6408 136.385 17.476 138.027 17.476C139.28 17.476 140.282 17.0027 141.368 15.9448L144.291 18.3669C142.844 20.2043 140.756 21.4293 137.749 21.4293ZM134.687 12.2977H139.921C139.726 10.6273 138.751 9.56942 137.304 9.56942C135.912 9.56942 134.965 10.6552 134.687 12.2977ZM146.661 21.0673V6.0059H151.95V8.12174C152.925 6.86894 154.317 5.67182 156.461 5.67182C159.662 5.67182 161.583 7.78766 161.583 11.212V21.0673H156.294V12.9102C156.294 11.2677 155.43 10.3768 154.178 10.3768C152.897 10.3768 151.95 11.2677 151.95 12.9102V21.0673H146.661ZM169.827 21.3736C166.653 21.3736 164.76 19.9816 164.76 16.3902V10.2654H162.978V6.0059H164.76V2.19182H170.05V6.0059H173.557V10.2654H170.05V15.3601C170.05 16.4181 170.523 16.8635 171.497 16.8635C172.193 16.8635 172.861 16.6686 173.502 16.3624V20.5105C172.555 21.0395 171.302 21.3736 169.827 21.3736Z" fill="#FAFAFA"/>
</g>
</g>
</g>
<defs>
<clipPath id="clip0_4436_599">
<rect width="174" height="41.76" fill="white" transform="translate(0 0.407227)"/>
</clipPath>
</defs>
</svg>
