<svg width="24" height="24" viewBox="0 0 24 24" fill="none" xmlns="http://www.w3.org/2000/svg">
<g id="mdi--user 1">
<path id="Vector" d="M12 4.00012C13.0609 4.00012 14.0783 4.42155 14.8284 5.17169C15.5786 5.92184 16 6.93926 16 8.00012C16 9.06099 15.5786 10.0784 14.8284 10.8285C14.0783 11.5787 13.0609 12.0001 12 12.0001C10.9391 12.0001 9.92172 11.5787 9.17157 10.8285C8.42143 10.0784 8 9.06099 8 8.00012C8 6.93926 8.42143 5.92184 9.17157 5.17169C9.92172 4.42155 10.9391 4.00012 12 4.00012ZM12 14.0001C16.42 14.0001 20 15.7901 20 18.0001V20.0001H4V18.0001C4 15.7901 7.58 14.0001 12 14.0001Z" fill="#31598F"/>
</g>
</svg>
